<svg width="20" height="20" viewBox="0 0 20 20" fill="none" xmlns="http://www.w3.org/2000/svg">
<path d="M6.87908 18.7821V15.7152C6.87907 14.9381 7.51102 14.3067 8.29379 14.3018H11.168C11.9542 14.3018 12.5916 14.9346 12.5916 15.7152V18.7732C12.5916 19.4473 13.1394 19.9951 13.8183 20H15.7792C16.695 20.0023 17.5741 19.6428 18.2225 19.0007C18.8709 18.3586 19.2354 17.4868 19.2354 16.5775V7.86585C19.2353 7.13139 18.9074 6.43471 18.34 5.9635L11.6783 0.674268C10.5139 -0.250877 8.85072 -0.220992 7.72074 0.745384L1.20236 5.9635C0.608092 6.42082 0.252904 7.11956 0.235352 7.86585V16.5686C0.235352 18.4637 1.78273 20 3.69152 20H5.60764C5.93452 20.0023 6.24884 19.8751 6.48082 19.6464C6.71281 19.4178 6.84328 19.1067 6.84327 18.7821H6.87908Z" fill="#7B22D3"/>
</svg>
